<?xml version="1.0" encoding="UTF-8" standalone="no"?>
<!-- Copied from assets/logo.svg for provider icon installation -->
<svg
   width="1024"
   height="1024"
   viewBox="0 0 270.93333 270.93335"
   version="1.1"
   id="svg1"
   xml:space="preserve"
   xmlns="http://www.w3.org/2000/svg"
   xmlns:svg="http://www.w3.org/2000/svg">
  <g id="layer1" transform="translate(-7.1890935,-8.0619773)">
    <path style="fill:#8e30eb;fill-opacity:1;stroke-width:0.859787" d="m 106.87099,259.53953 c -3.78819,-1.22557 -6.2669,-4.22563 -6.99944,-8.47165 -0.136495,-0.7912 -0.339079,-5.07262 -0.450168,-9.51427 -0.396359,-15.84712 -1.375066,-22.28402 -4.569986,-30.05644 -2.371766,-5.76991 -4.959939,-10.25397 -11.538278,-19.99029 -8.715022,-12.89874 -14.79997,-22.06204 -16.919057,-25.47835 -10.334196,-16.66038 -16.346002,-29.6853 -19.477213,-42.1985 -1.004215,-4.01312 -2.201555,-10.75713 -2.443474,-13.76284 -0.0856,-1.0635 -0.201972,-2.13836 -0.258611,-2.3886 -0.05664,-0.25024 -0.159345,-3.52602 -0.228233,-7.27952 -0.185272,-10.095056 0.418921,-16.950227 2.217932,-25.164642 1.207819,-5.514989 2.616261,-9.106212 3.997464,-10.192667 1.236787,-0.972857 3.178116,-0.389141 4.265418,1.282523 0.308352,0.474071 1.940727,4.086551 3.627499,8.027732 1.686772,3.94118 4.317024,9.929728 5.845003,13.307883 3.835685,8.480173 7.844721,17.527601 10.28178,23.203481 1.128151,2.62746 3.176092,7.33639 4.550982,10.46431 1.374888,3.12793 3.419864,7.88806 4.544387,10.57807 3.795518,9.07938 5.909804,12.92035 8.796555,15.98046 2.802414,2.97071 5.75967,4.6364 8.66366,4.87986 4.80947,0.4032 7.99795,-2.99256 9.92496,-10.57022 0.69446,-2.73081 1.30608,-7.44636 2.02807,-15.636 1.8141,-20.57785 4.25652,-33.653017 9.02994,-48.340596 4.54939,-13.998262 11.86943,-27.552522 20.51672,-37.990024 3.58015,-4.321337 11.34898,-11.474331 13.75566,-12.665244 1.18851,-0.588112 3.2229,-0.556201 4.05438,0.06359 1.6099,1.200034 1.84607,2.779152 1.15318,7.710718 -0.21095,1.501401 -1.05331,8.052974 -1.87191,14.559051 -1.51185,12.015804 -1.61162,12.772201 -2.85058,21.611092 -2.59895,18.541266 -6.21202,35.841373 -9.977,47.771883 -0.75019,2.37722 -2.50959,7.44445 -3.90979,11.26052 -5.56265,15.16042 -6.24048,17.4826 -6.24172,21.3836 -7.6e-4,2.4185 0.0484,2.71613 0.64958,3.94069 1.20916,2.46248 3.37451,3.48221 6.95168,3.27377 3.64094,-0.21215 5.80972,-1.07372 11.68814,-4.64322 10.52353,-6.39011 22.7982,-15.20876 58.96947,-42.36623 7.75989,-5.82613 15.02723,-11.25836 16.14967,-12.07162 1.12244,-0.81326 3.15449,-1.70088 4.51565,-1.97249 6.59104,-1.34056 13.17867,-0.23415 18.54618,3.15102 4.32944,2.70833 7.09519,6.16811 9.11195,11.27091 1.23357,3.05603 1.50723,4.9458 1.51967,10.40422 0.009,3.97948 -0.0392,5.27118 -0.2462,6.88911 -0.75171,5.86135 -2.10236,10.82675 -4.63404,17.37727 -7.57065,19.50907 -18.4328,33.86033 -41.03038,54.21558 -22.20879,20.03013 -40.14631,31.05843 -56.66328,35.20137 -6.31219,1.57274 -10.34657,2.08563 -17.80128,2.26483 -10.4272,0.24678 -18.39496,-0.82025 -31.14059,-4.14564 z"/>
  </g>
</svg>
