<svg xmlns="http://www.w3.org/2000/svg" viewBox="0 0 47 24">
  <path d="M 17.00 20.50 L 8.00 20.50 L 3.50 17.00 L 2.50 15.00 L 2.50 8.00 L 6.00 3.50 L 8.00 2.50 L 15.00 2.50 L 16.50 4.00 L 16.50 6.00 L 14.50 9.00 L 10.00 9.50 L 9.50 12.00 L 11.00 13.50 L 15.00 13.50 L 16.00 12.50 L 19.50 13.00 L 19.50 19.00 L 17.00 20.50 Z M 17.00 10.50 L 16.50 9.00 L 18.50 6.00 L 20.00 5.50 L 20.50 9.00 L 17.00 10.50 Z M 27.00 8.50 L 26.50 8.00 L 27.00 7.50 L 27.50 8.00 L 27.00 8.50 Z M 25.00 11.50 L 24.50 11.00 L 25.00 10.50 L 25.50 11.00 L 25.00 11.50 Z M 43.00 11.50 L 42.50 11.00 L 43.00 10.50 L 43.50 11.00 L 43.00 11.50 Z M 39.00 13.50 L 38.50 13.00 L 39.00 12.50 L 39.50 13.00 L 39.00 13.50 Z M 30.00 15.50 L 29.50 15.00 L 30.00 14.50 L 30.50 15.00 L 30.00 15.50 Z M 43.00 15.50 L 42.50 15.00 L 43.00 14.50 L 43.50 15.00 L 43.00 15.50 Z M 46.00 15.50 L 45.50 15.00 L 46.00 14.50 Z" fill="currentColor"/>
  
</svg>
