<svg xmlns="http://www.w3.org/2000/svg" viewBox="0 0 48 32">
  <path
    d="
      M 22 28
      C 16 28, 12 24, 12 19
      C 12 14, 16 10, 22 10
      C 26 10, 30 13, 30 18
      C 30 23, 27 28, 22 28
      Z

      M 16 8
      C 14 8, 13 6, 13 4
      C 13 2, 14.5 1, 16.5 1
      C 18.5 1, 20 2.5, 20 4.5
      C 20 6.5, 18.5 8, 16 8
      Z

      M 24 6
      C 22 6, 21 4.5, 21 3
      C 21 1.5, 22.5 0, 25 0
      C 27.5 0, 29 1.5, 29 3.5
      C 29 5.5, 27 6.5, 24 6
      Z

      M 32 8
      C 30.5 8, 29 6.5, 29 4.5
      C 29 2.5, 30.5 1, 33 1
      C 35.5 1, 37 2.5, 37 4.5
      C 37 6.5, 35 8, 32 8
      Z
    "
    fill="currentColor"
  />
</svg>