<?xml version="1.0" encoding="UTF-8" standalone="no"?>
<!-- Created with Inkscape (http://www.inkscape.org/) -->

<svg
   width="1024"
   height="1024"
   viewBox="0 0 270.93333 270.93335"
   version="1.1"
   id="svg1"
   xml:space="preserve"
   inkscape:version="1.4.2 (ebf0e940, 2025-05-08)"
   sodipodi:docname="logo.svg"
   xmlns:inkscape="http://www.inkscape.org/namespaces/inkscape"
   xmlns:sodipodi="http://sodipodi.sourceforge.net/DTD/sodipodi-0.dtd"
   xmlns="http://www.w3.org/2000/svg"
   xmlns:svg="http://www.w3.org/2000/svg"><sodipodi:namedview
     id="namedview1"
     pagecolor="#ffffff"
     bordercolor="#000000"
     borderopacity="0.25"
     inkscape:showpageshadow="2"
     inkscape:pageopacity="0.0"
     inkscape:pagecheckerboard="0"
     inkscape:deskcolor="#d1d1d1"
     inkscape:document-units="mm"
     inkscape:zoom="0.27653847"
     inkscape:cx="515.29901"
     inkscape:cy="788.31708"
     inkscape:window-width="1920"
     inkscape:window-height="1027"
     inkscape:window-x="1512"
     inkscape:window-y="25"
     inkscape:window-maximized="1"
     inkscape:current-layer="layer1" /><defs
     id="defs1" /><g
     inkscape:label="Layer 1"
     inkscape:groupmode="layer"
     id="layer1"
     transform="translate(-7.1890935,-8.0619773)"><path
       style="fill:#8e30eb;fill-opacity:1;stroke-width:0.859787"
       d="m 106.87099,259.53953 c -3.78819,-1.22557 -6.2669,-4.22563 -6.99944,-8.47165 -0.136495,-0.7912 -0.339079,-5.07262 -0.450168,-9.51427 -0.396359,-15.84712 -1.375066,-22.28402 -4.569986,-30.05644 -2.371766,-5.76991 -4.959939,-10.25397 -11.538278,-19.99029 -8.715022,-12.89874 -14.79997,-22.06204 -16.919057,-25.47835 -10.334196,-16.66038 -16.346002,-29.6853 -19.477213,-42.1985 -1.004215,-4.01312 -2.201555,-10.75713 -2.443474,-13.76284 -0.0856,-1.0635 -0.201972,-2.13836 -0.258611,-2.3886 -0.05664,-0.25024 -0.159345,-3.52602 -0.228233,-7.27952 -0.185272,-10.095056 0.418921,-16.950227 2.217932,-25.164642 1.207819,-5.514989 2.616261,-9.106212 3.997464,-10.192667 1.236787,-0.972857 3.178116,-0.389141 4.265418,1.282523 0.308352,0.474071 1.940727,4.086551 3.627499,8.027732 1.686772,3.94118 4.317024,9.929728 5.845003,13.307883 3.835685,8.480173 7.844721,17.527601 10.28178,23.203481 1.128151,2.62746 3.176092,7.33639 4.550982,10.46431 1.374888,3.12793 3.419864,7.88806 4.544387,10.57807 3.795518,9.07938 5.909804,12.92035 8.796555,15.98046 2.802414,2.97071 5.75967,4.6364 8.66366,4.87986 4.80947,0.4032 7.99795,-2.99256 9.92496,-10.57022 0.69446,-2.73081 1.30608,-7.44636 2.02807,-15.636 1.8141,-20.57785 4.25652,-33.653017 9.02994,-48.340596 4.54939,-13.998262 11.86943,-27.552522 20.51672,-37.990024 3.58015,-4.321337 11.34898,-11.474331 13.75566,-12.665244 1.18851,-0.588112 3.2229,-0.556201 4.05438,0.06359 1.6099,1.200034 1.84607,2.779152 1.15318,7.710718 -0.21095,1.501401 -1.05331,8.052974 -1.87191,14.559051 -1.51185,12.015804 -1.61162,12.772201 -2.85058,21.611092 -2.59895,18.541266 -6.21202,35.841373 -9.977,47.771883 -0.75019,2.37722 -2.50959,7.44445 -3.90979,11.26052 -5.56265,15.16042 -6.24048,17.4826 -6.24172,21.3836 -7.6e-4,2.4185 0.0484,2.71613 0.64958,3.94069 1.20916,2.46248 3.37451,3.48221 6.95168,3.27377 3.64094,-0.21215 5.80972,-1.07372 11.68814,-4.64322 10.52353,-6.39011 22.7982,-15.20876 58.96947,-42.36623 7.75989,-5.82613 15.02723,-11.25836 16.14967,-12.07162 1.12243,-0.81326 2.68753,-1.965461 3.47801,-2.560434 2.01869,-1.519438 2.57507,-1.761785 4.04469,-1.761785 1.18294,0 1.35625,0.06757 2.04498,0.797878 1.26001,1.336004 1.31449,3.675221 0.19069,8.187791 -1.69921,6.82313 -4.57494,13.58273 -9.4843,22.29355 -3.75893,6.66955 -6.92683,11.36695 -11.50615,17.06138 -11.17727,13.89903 -22.99274,23.89463 -49.20924,41.62979 -7.01642,4.74652 -15.12906,10.69359 -21.22888,15.5621 -11.44384,9.13376 -17.94054,17.12624 -22.76091,28.0013 -1.66786,3.7628 -3.56696,9.7907 -5.33937,16.94765 -1.02808,4.1513 -1.91265,7.20406 -2.38601,8.23433 -0.98523,2.1444 -2.50049,3.74853 -4.41241,4.67116 -1.33373,0.64361 -1.74965,0.7298 -3.77378,0.78193 -1.72339,0.0444 -2.59221,-0.0442 -3.58399,-0.36495 z"
       id="path1" /></g></svg>
